<?xml version="1.0" standalone="no"?><!DOCTYPE svg PUBLIC "-//W3C//DTD SVG 1.1//EN" "http://www.w3.org/Graphics/SVG/1.1/DTD/svg11.dtd"><svg t="1668341777961" class="icon" viewBox="0 0 1024 1024" version="1.1" xmlns="http://www.w3.org/2000/svg" p-id="6962" xmlns:xlink="http://www.w3.org/1999/xlink" width="200" height="200"><path d="M908.069662 445.379293v-26.441934h-51.91772a345.270639 345.270639 0 0 1-143.600042 250.079676l185.042688 320.557601H126.405412l184.991838-320.557601a345.270639 345.270639 0 0 1-143.600042-250.079676H115.726938v26.441934h-26.340234V339.662407h26.340234v26.492783h51.307522a345.626588 345.626588 0 1 1 690.03278 0h51.053272v-26.492783h26.492784v105.716886h-26.543634z m-112.937568-79.224103a282.725295 282.725295 0 0 0-79.376652-176.703309c-0.355949-0.254249-0.661048-0.661048-1.067847-1.169547a175.177813 175.177813 0 0 0-7.627481-7.322382c-0.610198-0.661048-1.169547-1.372947-1.983145-1.983145-2.389944-2.237394-4.881588-4.322239-7.271532-6.457934l-2.745893-2.339094-6.966433-5.796885c-1.271247-0.915298-2.186545-1.779746-3.457791-2.593344-2.288244-1.728896-4.576489-3.508641-6.966433-5.186687a429.12208 429.12208 0 0 0-10.729323-7.373232c-1.474646-0.762748-2.898443-1.881445-4.474789-2.796743a92.29252 92.29252 0 0 0-6.763033-4.118839c-1.576346-1.016997-3.254392-1.881445-4.779888-2.898443-2.288244-1.118697-4.474789-2.339094-6.763034-3.508641a143.752592 143.752592 0 0 0-11.89887-5.898586c-1.983145-1.016997-3.661191-1.779746-5.644336-2.695043a130.328225 130.328225 0 0 0-6.661333-2.745893 104.24224 104.24224 0 0 0-5.949435-2.491644c-2.186545-0.762748-4.373089-1.678046-6.559634-2.491644-2.288244-0.661048-4.271389-1.372947-6.356234-2.033995-2.186545-0.661048-4.373089-1.474646-6.457934-2.084844-2.288244-0.813598-4.576489-1.322097-6.864733-1.983145-2.186545-0.610198-4.271389-1.322097-6.356234-1.830596l-7.169832-1.627196L567.98571 108.702282c-2.491644-0.559349-5.084987-0.966148-7.627481-1.474646l-5.949435-1.016997a109.937426 109.937426 0 0 0-8.339379-0.966148l-5.644336-0.813598c-3.050992-0.305099-6.203685-0.508499-9.305527-0.711898l-4.779888-0.406799c-4.779888-0.305099-9.458076-0.305099-14.187114-0.305099-4.678188 0-9.610626 0-14.288815 0.305099a51.96857 51.96857 0 0 1-4.729038 0.559348 281.911697 281.911697 0 0 0-9.407226 0.711899l-5.746036 0.813598c-2.695043 0.254249-5.440936 0.457649-8.18683 0.966147l-6.051135 1.016998c-2.593344 0.457649-4.983288 0.864448-7.525781 1.423796l-6.356234 1.322097-7.169832 1.627196c-2.084845 0.508499-4.271389 1.220397-6.305384 1.830595-2.237394 0.610198-4.525639 1.118697-6.915583 1.932295-2.084845 0.610198-4.271389 1.423796-6.407084 2.084845l-6.305385 2.033995c-2.186545 0.813598-4.373089 1.728896-6.610483 2.491644-1.932295 0.864448-4.01714 1.576346-6.000285 2.491644a110.293375 110.293375 0 0 0-6.559634 2.695043c-1.983145 0.915298-3.762891 1.678046-5.746035 2.695043a215.094964 215.094964 0 0 0-11.898871 5.898586c-2.288244 1.169547-4.373089 2.389944-6.712183 3.508641-1.525496 1.016997-3.203542 1.881445-4.830738 2.898443-2.339094 1.372947-4.525639 2.644193-6.763033 4.118839a104.598189 104.598189 0 0 0-11.085272 7.373232c-1.474646 1.016997-2.796743 1.881445-3.966291 2.796743-2.491644 1.678046-4.729038 3.457791-7.118982 5.186687-1.118697 0.813598-2.033995 1.779746-3.305242 2.593344-2.389944 1.983145-4.779888 3.81374-7.118982 5.796885l-2.644193 2.389944c-2.491644 2.135695-5.084987 4.220539-7.373232 6.457934-0.762748 0.610198-1.322097 1.322097-1.983145 1.983145-2.542494 2.389944-5.135837 4.830738-7.576631 7.322382a283.030394 283.030394 0 0 0-79.580052 230.655025l0.2034 1.372946c2.389944 20.1874 6.763033 40.01885 13.424367 59.290952 0.508499 1.271247 0.864448 2.593344 1.220396 3.762891l2.949293 7.627481c0.711898 1.576346 1.271247 3.356092 1.881445 4.983288l3.050993 6.763033c0.915298 1.881445 1.576346 3.86459 2.593343 5.644336 0.813598 1.932295 1.830595 3.96629 2.898443 6.051135 1.016997 1.983145 1.932295 3.96629 3.050993 5.898585l3.101842 5.491786c2.084845 3.86459 4.271389 7.576631 6.559633 11.339522l4.16969 6.457934 3.101842 4.423939 4.678189 6.813883c1.016997 1.220397 1.881445 2.542494 2.898442 3.76289 1.779746 2.440794 3.762891 4.779888 5.593486 7.169832 0.915298 1.067847 1.576346 2.033995 2.542494 3.203542 2.084845 2.644193 4.373089 5.084987 6.661333 7.627481 0.711898 0.711898 1.271247 1.474646 1.881446 2.288245l8.237679 8.542778a280.945549 280.945549 0 0 0 91.021273 61.477497l0.05085 0.1017a289.844277 289.844277 0 0 0 12.763318 5.034137h0.05085a283.233794 283.233794 0 0 0 195.212663 0h0.1017c4.373089-1.423796 8.644478-3.152692 12.814168-5.034137l0.2034-0.1017a286.437336 286.437336 0 0 0 90.004275-60.562199c0.305099-0.305099 0.508499-0.711898 0.813598-0.915298l8.23768-8.542778c0.610198-0.813598 1.169547-1.576346 1.983145-2.288245l6.559633-7.627481c1.016997-1.118697 1.779746-2.186545 2.695044-3.203542 1.881445-2.389944 3.762891-4.729038 5.440936-7.169832l2.796743-3.76289c2.796743-3.762891 5.339237-7.424081 7.830881-11.237822 1.372947-2.084845 2.796743-4.373089 4.271389-6.457934 0.915298-1.627196 1.881445-3.406942 2.898443-4.983288 1.271247-2.084845 2.593344-4.16969 3.661191-6.356234 0.915298-1.728896 2.084845-3.610341 3.000142-5.491786a215.603462 215.603462 0 0 0 3.101842-5.898585c1.016997-2.084845 1.983145-4.11884 3.101843-6.051135l2.491643-5.644336c1.016997-2.288244 1.983145-4.373089 2.898443-6.763033 0.711898-1.576346 1.271247-3.356092 1.983145-4.983288l3.000143-7.627481 1.169547-3.762891c6.559634-19.272102 11.237822-39.103552 13.526066-59.290952l0.2034-1.372946c1.169547-10.525924 1.881445-21.051848 1.881445-31.628621a370.339627 370.339627 0 0 0-1.220397-21.204398z m-274.843565 45.154688c37.628906 11.034422 65.698036 53.951715 65.698037 105.513487 0 55.172112-32.391369 100.581049-74.088266 107.242382V413.648972a15.763461 15.763461 0 0 1-13.424366-7.424081c-11.034422 37.578056-53.951715 65.596336-105.360938 65.596336-55.324662 0-100.733599-32.18797-107.344082-73.884866h210.315076c0-5.440936 2.847593-10.576774 7.474931-13.526066-37.527206-10.932723-65.494637-54.002565-65.494637-105.462637 0-55.070413 32.18797-100.581049 73.834016-107.242383v210.365926a15.763461 15.763461 0 0 1 13.424367 7.474931c11.034422-37.578056 54.104265-65.596336 105.462637-65.596336 55.222962 0 100.682749 32.18797 107.344082 74.037415h-210.315075a16.11941 16.11941 0 0 1-7.525782 13.322667z" fill="#00A0E9" p-id="6963"></path></svg>