<?xml version="1.0" standalone="no"?><!DOCTYPE svg PUBLIC "-//W3C//DTD SVG 1.1//EN" "http://www.w3.org/Graphics/SVG/1.1/DTD/svg11.dtd"><svg t="1668341715730" class="icon" viewBox="0 0 1028 1024" version="1.1" xmlns="http://www.w3.org/2000/svg" p-id="5324" xmlns:xlink="http://www.w3.org/1999/xlink" width="200.78125" height="200"><path d="M995.128239 375.66732a33.442195 33.442195 0 0 1-33.442195-33.442195v-84.608752a33.442195 33.442195 0 0 1 66.884389 0v84.608752a33.442195 33.442195 0 0 1-33.442194 33.442195z" fill="#494949" p-id="5325"></path><path d="M966.145003 1024H62.42543a62.42543 62.42543 0 0 1-62.42543-62.42543V62.42543A62.42543 62.42543 0 0 1 62.42543 0h903.719573a62.42543 62.42543 0 0 1 62.42543 62.42543V167.210973a33.442195 33.442195 0 1 1-66.884389 0V66.884389H66.884389v890.231222h894.801655v-490.485522a33.442195 33.442195 0 0 1 66.884389 0v494.944481a62.42543 62.42543 0 0 1-62.42543 62.42543z" fill="#E84842" p-id="5326"></path><path d="M966.145003 1024H62.42543a62.42543 62.42543 0 0 1-62.42543-62.42543V62.42543A62.42543 62.42543 0 0 1 62.42543 0h903.719573a62.42543 62.42543 0 0 1 62.42543 62.42543V167.210973a33.442195 33.442195 0 1 1-66.884389 0V66.884389H66.884389v890.231222h894.801655V530.281733a33.442195 33.442195 0 0 1 66.884389 0v431.292837a62.42543 62.42543 0 0 1-62.42543 62.42543z" fill="#FFE164" p-id="5327"></path><path d="M966.145003 1024H62.42543a62.42543 62.42543 0 0 1-62.42543-62.42543V62.42543A62.42543 62.42543 0 0 1 62.42543 0h903.719573a62.42543 62.42543 0 0 1 62.42543 62.42543V167.210973a33.442195 33.442195 0 1 1-66.884389 0V66.884389H66.884389v890.231222h894.801655V586.018724a33.442195 33.442195 0 0 1 66.884389 0v375.555846a62.42543 62.42543 0 0 1-62.42543 62.42543z" fill="#437DFF" p-id="5328"></path><path d="M966.145003 1024H62.42543a62.42543 62.42543 0 0 1-62.42543-62.42543V62.42543A62.42543 62.42543 0 0 1 62.42543 0h903.719573a62.42543 62.42543 0 0 1 62.42543 62.42543V167.210973a33.442195 33.442195 0 1 1-66.884389 0V66.884389H66.884389v890.231222h894.801655v-300.979752a33.442195 33.442195 0 0 1 66.884389 0v305.438711a62.42543 62.42543 0 0 1-62.42543 62.42543z" fill="#494949" p-id="5329"></path><path d="M261.963858 667.952101a100.326584 100.326584 0 1 1 100.326584-100.326584 100.326584 100.326584 0 0 1-100.326584 100.326584z m0-132.654039A32.884825 32.884825 0 1 0 294.848683 568.517309a32.884825 32.884825 0 0 0-32.884825-33.442195z" fill="#437DFF" p-id="5330"></path><path d="M766.606575 792.802961a100.326584 100.326584 0 1 1 100.326584-100.326584 100.326584 100.326584 0 0 1-100.326584 100.326584z m0-132.654039a33.442195 33.442195 0 1 0 33.442195 33.442195 32.884825 32.884825 0 0 0-33.442195-33.442195z" fill="#FFE164" p-id="5331"></path><path d="M392.834313 782.881777a33.442195 33.442195 0 0 1-33.442195-33.442195V254.049205a29.652079 29.652079 0 0 0-31.993032-26.196385 29.652079 29.652079 0 0 0-31.993033 26.196385V497.17396a33.442195 33.442195 0 0 1-66.88439 0V254.049205a96.202047 96.202047 0 0 1 98.877423-93.080775 96.202047 96.202047 0 0 1 98.877422 93.080775v495.390377a33.442195 33.442195 0 0 1-33.442195 33.442195z" fill="#437DFF" p-id="5332"></path><path d="M458.158067 862.920096a98.988896 98.988896 0 0 1-98.877423-98.877422v-14.603092a33.442195 33.442195 0 0 1 66.88439 0v14.603092a31.993033 31.993033 0 1 0 63.986065 0V446.899194a33.442195 33.442195 0 0 1 66.88439 0v317.14348a98.988896 98.988896 0 0 1-98.877422 98.877422z" fill="#E84842" p-id="5333"></path><path d="M700.279556 726.475942a79.369475 79.369475 0 0 1-79.258001-79.258002V420.256913a32.661877 32.661877 0 0 0-63.986066 0V490.485521a33.442195 33.442195 0 0 1-66.88439 0v-70.228608a99.10037 99.10037 0 0 1 197.754845 0v226.961027a12.373612 12.373612 0 0 0 12.373612 12.373612 33.442195 33.442195 0 0 1 0 66.88439z" fill="#FFE164" p-id="5334"></path></svg>