<?xml version="1.0" standalone="no"?><!DOCTYPE svg PUBLIC "-//W3C//DTD SVG 1.1//EN" "http://www.w3.org/Graphics/SVG/1.1/DTD/svg11.dtd"><svg t="1668352835721" class="icon" viewBox="0 0 1024 1024" version="1.1" xmlns="http://www.w3.org/2000/svg" p-id="10708" xmlns:xlink="http://www.w3.org/1999/xlink" width="200" height="200"><path d="M298.2912 741.2224a15.36 15.36 0 0 1-15.36-15.36V298.3936a15.36 15.36 0 0 1 30.72 0v427.4688a15.36 15.36 0 0 1-15.36 15.36zM725.4528 741.2224a15.36 15.36 0 0 1-15.36-15.36V298.6496a15.36 15.36 0 1 1 30.72 0v427.2128a15.36 15.36 0 0 1-15.36 15.36z" fill="#d81e06" p-id="10709"></path><path d="M725.4528 313.7536H298.2912a15.36 15.36 0 1 1 0-30.72h427.1616a15.36 15.36 0 0 1 0 30.72zM725.4528 741.2224H298.2912a15.36 15.36 0 1 1 0-30.72h427.1616a15.36 15.36 0 0 1 0 30.72zM630.5792 526.8992H392.8064a15.36 15.36 0 0 1 0-30.72h237.7728a15.36 15.36 0 0 1 0 30.72z" fill="#d81e06" p-id="10710"></path><path d="M511.5392 646.0928a15.36 15.36 0 0 1-15.36-15.36V393.7792a15.36 15.36 0 0 1 30.72 0v236.9536a15.36 15.36 0 0 1-15.36 15.36zM393.4208 313.7536a15.36 15.36 0 0 1-15.36-15.36V180.0704a15.36 15.36 0 0 1 30.72 0v118.3232a15.36 15.36 0 0 1-15.36 15.36zM511.5392 313.7536a15.36 15.36 0 0 1-15.36-15.36V180.0704a15.36 15.36 0 1 1 30.72 0v118.3232a15.36 15.36 0 0 1-15.36 15.36zM630.5792 313.7536a15.36 15.36 0 0 1-15.36-15.36V180.0704a15.36 15.36 0 1 1 30.72 0v118.3232a15.36 15.36 0 0 1-15.36 15.36zM393.4208 859.2896a15.36 15.36 0 0 1-15.36-15.36v-118.3232a15.36 15.36 0 0 1 30.72 0v118.3232a15.36 15.36 0 0 1-15.36 15.36zM511.5392 859.2896a15.36 15.36 0 0 1-15.36-15.36v-118.3232a15.36 15.36 0 0 1 30.72 0v118.3232a15.36 15.36 0 0 1-15.36 15.36zM630.5792 859.2896a15.36 15.36 0 0 1-15.36-15.36v-118.3232a15.36 15.36 0 0 1 30.72 0v118.3232a15.36 15.36 0 0 1-15.36 15.36zM843.9296 408.7808h-118.3232a15.36 15.36 0 0 1 0-30.72h118.3232a15.36 15.36 0 0 1 0 30.72zM843.9296 526.8992h-118.3232a15.36 15.36 0 0 1 0-30.72h118.3232a15.36 15.36 0 0 1 0 30.72zM843.9296 645.9392h-118.3232a15.36 15.36 0 0 1 0-30.72h118.3232a15.36 15.36 0 0 1 0 30.72zM298.3936 408.7808H180.0704a15.36 15.36 0 0 1 0-30.72h118.3232a15.36 15.36 0 0 1 0 30.72zM298.3936 526.8992H180.0704a15.36 15.36 0 1 1 0-30.72h118.3232a15.36 15.36 0 0 1 0 30.72zM298.3936 645.9392H180.0704a15.36 15.36 0 1 1 0-30.72h118.3232a15.36 15.36 0 0 1 0 30.72z" fill="#d81e06" p-id="10711"></path></svg>