<?xml version="1.0" standalone="no"?><!DOCTYPE svg PUBLIC "-//W3C//DTD SVG 1.1//EN" "http://www.w3.org/Graphics/SVG/1.1/DTD/svg11.dtd"><svg t="1668353357862" class="icon" viewBox="0 0 1024 1024" version="1.1" xmlns="http://www.w3.org/2000/svg" p-id="23079" xmlns:xlink="http://www.w3.org/1999/xlink" width="200" height="200"><path d="M213.76 910.72a33.28 33.28 0 0 1-21.76-7.68 496 496 0 1 1 640 0 32.64 32.64 0 0 1-45.44-3.84 31.36 31.36 0 0 1 3.84-44.8 432 432 0 1 0-558.72 0 32 32 0 0 1-20.48 56.32z" fill="#1296db" p-id="23080"></path><path d="M327.04 796.8a31.36 31.36 0 0 1-20.48-7.68 330.24 330.24 0 1 1 426.88 0 31.36 31.36 0 0 1-44.8-3.2 32.64 32.64 0 0 1 3.2-45.44 266.88 266.88 0 1 0-344.32 0 32.64 32.64 0 0 1 3.84 45.44 30.72 30.72 0 0 1-24.32 10.88z" fill="#1296db" p-id="23081"></path><path d="M519.04 697.6a160.64 160.64 0 1 1 160.64-160.64 161.28 161.28 0 0 1-160.64 160.64z m0-256a96.64 96.64 0 1 0 96.64 95.36 97.28 97.28 0 0 0-96.64-96.64z" fill="#1296db" p-id="23082"></path><path d="M519.04 1015.68a32 32 0 0 1-32-32v-320a32 32 0 0 1 64 0v320a32 32 0 0 1-32 32z" fill="#1296db" p-id="23083"></path></svg>