<?xml version="1.0" standalone="no"?><!DOCTYPE svg PUBLIC "-//W3C//DTD SVG 1.1//EN" "http://www.w3.org/Graphics/SVG/1.1/DTD/svg11.dtd"><svg t="1668353039954" class="icon" viewBox="0 0 1024 1024" version="1.1" xmlns="http://www.w3.org/2000/svg" p-id="18582" xmlns:xlink="http://www.w3.org/1999/xlink" width="200" height="200"><path d="M825.6 492.8H531.2V416c76.8-12.8 134.4-83.2 134.4-160 0-83.2-70.4-153.6-153.6-153.6-89.6 0-166.4 70.4-166.4 160 0 76.8 57.6 140.8 134.4 160v76.8H192v185.6c-51.2 12.8-96 57.6-96 115.2v12.8c0 64 57.6 121.6 121.6 121.6 70.4 0 128-57.6 128-128 0-57.6-38.4-108.8-96-121.6v-128h236.8v128c-57.6 12.8-96 64-96 128S448 928 512 934.4c70.4 0 128-51.2 128-121.6 0-57.6-38.4-108.8-96-121.6v-128h236.8v128c-57.6 12.8-96 64-96 121.6 0 70.4 57.6 128 128 121.6 64 0 115.2-57.6 121.6-121.6 0-64-38.4-115.2-96-128v-192z m-544 307.2c0 38.4-25.6 70.4-64 64-32 0-57.6-25.6-57.6-57.6 0-38.4 25.6-70.4 64-64 32 0 51.2 25.6 57.6 57.6z m288 0c0 38.4-25.6 70.4-64 64-32 0-57.6-25.6-57.6-57.6 0-38.4 25.6-70.4 64-64 32 0 57.6 25.6 57.6 57.6zM409.6 262.4c0-57.6 44.8-102.4 102.4-102.4 51.2 0 89.6 44.8 89.6 89.6 0 57.6-44.8 102.4-102.4 102.4-44.8 0-83.2-38.4-89.6-89.6z m454.4 544c0 32-25.6 57.6-57.6 57.6-38.4 0-70.4-25.6-64-64 0-32 25.6-57.6 57.6-57.6s64 25.6 64 64z" fill="#d81e06" p-id="18583"></path></svg>