<svg version="1.1" xmlns="http://www.w3.org/2000/svg" xmlns:xlink="http://www.w3.org/1999/xlink" width="940" height="396"><defs/><g><g transform="translate(-14,-38) scale(1,1)"><path fill="#C0C0C0" stroke="none" d="M 207.5 110.5 C 207.5 79.8481936 232.3481936 55 263 55 C 293.6518064 55 318.5 79.8481936 318.5 110.5 C 318.5 141.1518064 293.6518064 166 263 166 C 232.3481936 166 207.5 141.1518064 207.5 110.5 Z" opacity="0.2"/></g><g transform="translate(-14,-38) scale(1,1)"><path fill="#ffffff" stroke="none" d="M 200.5 103.5 C 200.5 72.8481936 225.3481936 48 256 48 C 286.6518064 48 311.5 72.8481936 311.5 103.5 C 311.5 134.1518064 286.6518064 159 256 159 C 225.3481936 159 200.5 134.1518064 200.5 103.5 Z"/></g><g transform="translate(-14,-38) scale(1,1)"><path fill="none" stroke="#000000" d="M 200.5 103.5 C 200.5 72.8481936 225.3481936 48 256 48 C 286.6518064 48 311.5 72.8481936 311.5 103.5 C 311.5 134.1518064 286.6518064 159 256 159 C 225.3481936 159 200.5 134.1518064 200.5 103.5 Z" stroke-miterlimit="10"/></g><g transform="translate(-14,-38) scale(1,1)"><g><path fill="none" stroke="none"/><text fill="#000000" stroke="none" font-family="Arial" font-size="13px" font-style="normal" font-weight="bold" text-decoration="none" x="212.286865234375" y="176.7099609375">AbstractClass</text></g></g><g transform="translate(-14,-38) scale(1,1)"><rect fill="#C0C0C0" stroke="none" x="31" y="327" width="144" height="104" opacity="0.2"/></g><g transform="translate(-14,-38) scale(1,1)"><rect fill="#ffffff" stroke="none" x="24" y="320" width="144" height="104"/></g><g transform="translate(-14,-38) scale(1,1)"><path fill="none" stroke="#000000" d="M 24 320 L 168 320 L 168 424 L 24 424 L 24 320 Z Z" stroke-miterlimit="10"/></g><g transform="translate(-14,-38) scale(1,1)"><path fill="none" stroke="#000000" d="M 24 345 L 168 345" stroke-miterlimit="10"/></g><g transform="translate(-14,-38) scale(1,1)"><path fill="none" stroke="#000000" d="M 24 355 L 168 355" stroke-miterlimit="10"/></g><g transform="translate(-14,-38) scale(1,1)"><g><path fill="none" stroke="none"/><text fill="#000000" stroke="none" font-family="Arial" font-size="13px" font-style="normal" font-weight="bold" text-decoration="none" x="45.786865234375" y="337.7099609375">ConcreteClassA</text></g></g><g transform="translate(-14,-38) scale(1,1)"><g><path fill="none" stroke="none"/><text fill="#000000" stroke="none" font-family="Arial" font-size="13px" font-style="normal" font-weight="normal" text-decoration="none" x="29" y="370.7099609375">+Operation1()</text></g></g><g transform="translate(-14,-38) scale(1,1)"><g><path fill="none" stroke="none"/><text fill="#000000" stroke="none" font-family="Arial" font-size="13px" font-style="normal" font-weight="normal" text-decoration="none" x="29" y="385.7099609375">+Operation2()</text></g></g><g transform="translate(-14,-38) scale(1,1)"><g><path fill="none" stroke="none"/><text fill="#000000" stroke="none" font-family="Arial" font-size="13px" font-style="normal" font-weight="normal" text-decoration="none" x="29" y="400.7099609375">+Operation3()</text></g></g><g transform="translate(-14,-38) scale(1,1)"><rect fill="#C0C0C0" stroke="none" x="287" y="319" width="176" height="104" opacity="0.2"/></g><g transform="translate(-14,-38) scale(1,1)"><rect fill="#ffffff" stroke="none" x="280" y="312" width="176" height="104"/></g><g transform="translate(-14,-38) scale(1,1)"><path fill="none" stroke="#000000" d="M 280 312 L 456 312 L 456 416 L 280 416 L 280 312 Z Z" stroke-miterlimit="10"/></g><g transform="translate(-14,-38) scale(1,1)"><path fill="none" stroke="#000000" d="M 280 337 L 456 337" stroke-miterlimit="10"/></g><g transform="translate(-14,-38) scale(1,1)"><path fill="none" stroke="#000000" d="M 280 347 L 456 347" stroke-miterlimit="10"/></g><g transform="translate(-14,-38) scale(1,1)"><g><path fill="none" stroke="none"/><text fill="#000000" stroke="none" font-family="Arial" font-size="13px" font-style="normal" font-weight="bold" text-decoration="none" x="317.786865234375" y="329.7099609375">ConcreteClassB</text></g></g><g transform="translate(-14,-38) scale(1,1)"><g><path fill="none" stroke="none"/><text fill="#000000" stroke="none" font-family="Arial" font-size="13px" font-style="normal" font-weight="normal" text-decoration="none" x="285" y="362.7099609375">+Operation1()</text></g></g><g transform="translate(-14,-38) scale(1,1)"><g><path fill="none" stroke="none"/><text fill="#000000" stroke="none" font-family="Arial" font-size="13px" font-style="normal" font-weight="normal" text-decoration="none" x="285" y="377.7099609375">+Operation2()</text></g></g><g transform="translate(-14,-38) scale(1,1)"><g><path fill="none" stroke="none"/><text fill="#000000" stroke="none" font-family="Arial" font-size="13px" font-style="normal" font-weight="normal" text-decoration="none" x="285" y="392.7099609375">+Operation3()</text></g></g><g transform="translate(-14,-38) scale(1,1)"><path fill="none" stroke="#000000" d="M 129 319 L 226.6341463414634 159" stroke-miterlimit="10"/></g><g transform="translate(-14,-38) scale(1,1)"><path fill="none" stroke="#000000" d="M 344 311 L 277.1707317073171 159" stroke-miterlimit="10"/></g><g transform="translate(-14,-38) scale(1,1)"><path fill="#C0C0C0" stroke="none" d="M 679.5 90.5 C 679.5 70.8938896 695.3938896 55 715 55 C 734.6061104 55 750.5 70.8938896 750.5 90.5 C 750.5 110.1061104 734.6061104 126 715 126 C 695.3938896 126 679.5 110.1061104 679.5 90.5 Z" opacity="0.2"/></g><g transform="translate(-14,-38) scale(1,1)"><path fill="#ffffff" stroke="none" d="M 672.5 83.5 C 672.5 63.893889599999994 688.3938896 48 708 48 C 727.6061104 48 743.5 63.893889599999994 743.5 83.5 C 743.5 103.1061104 727.6061104 119 708 119 C 688.3938896 119 672.5 103.1061104 672.5 83.5 Z"/></g><g transform="translate(-14,-38) scale(1,1)"><path fill="none" stroke="#000000" d="M 672.5 83.5 C 672.5 63.893889599999994 688.3938896 48 708 48 C 727.6061104 48 743.5 63.893889599999994 743.5 83.5 C 743.5 103.1061104 727.6061104 119 708 119 C 688.3938896 119 672.5 103.1061104 672.5 83.5 Z" stroke-miterlimit="10"/></g><g transform="translate(-14,-38) scale(1,1)"><g><path fill="none" stroke="none"/><text fill="#000000" stroke="none" font-family="Arial" font-size="13px" font-style="normal" font-weight="bold" text-decoration="none" x="693.3115234375" y="136.7099609375">Tank</text></g></g><g transform="translate(-14,-38) scale(1,1)"><rect fill="#C0C0C0" stroke="none" x="591" y="335" width="128" height="88" opacity="0.2"/></g><g transform="translate(-14,-38) scale(1,1)"><rect fill="#ffffff" stroke="none" x="584" y="328" width="128" height="88"/></g><g transform="translate(-14,-38) scale(1,1)"><path fill="none" stroke="#000000" d="M 584 328 L 712 328 L 712 416 L 584 416 L 584 328 Z Z" stroke-miterlimit="10"/></g><g transform="translate(-14,-38) scale(1,1)"><path fill="none" stroke="#000000" d="M 584 353 L 712 353" stroke-miterlimit="10"/></g><g transform="translate(-14,-38) scale(1,1)"><path fill="none" stroke="#000000" d="M 584 363 L 712 363" stroke-miterlimit="10"/></g><g transform="translate(-14,-38) scale(1,1)"><g><path fill="none" stroke="none"/><text fill="#000000" stroke="none" font-family="Arial" font-size="13px" font-style="normal" font-weight="bold" text-decoration="none" x="636.799560546875" y="345.53857421875">T90</text></g></g><g transform="translate(-14,-38) scale(1,1)"><g><path fill="none" stroke="none"/><text fill="#000000" stroke="none" font-family="Arial" font-size="13px" font-style="normal" font-weight="normal" text-decoration="none" x="589" y="378.7099609375">+int roload()</text></g></g><g transform="translate(-14,-38) scale(1,1)"><g><path fill="none" stroke="none"/><text fill="#000000" stroke="none" font-family="Arial" font-size="13px" font-style="normal" font-weight="normal" text-decoration="none" x="589" y="393.7099609375">+aiming()</text></g></g><g transform="translate(-14,-38) scale(1,1)"><g><path fill="none" stroke="none"/><text fill="#000000" stroke="none" font-family="Arial" font-size="13px" font-style="normal" font-weight="normal" text-decoration="none" x="589" y="408.7099609375">+fire()</text></g></g><g transform="translate(-14,-38) scale(1,1)"><rect fill="#C0C0C0" stroke="none" x="799" y="327" width="152" height="104" opacity="0.2"/></g><g transform="translate(-14,-38) scale(1,1)"><rect fill="#ffffff" stroke="none" x="792" y="320" width="152" height="104"/></g><g transform="translate(-14,-38) scale(1,1)"><path fill="none" stroke="#000000" d="M 792 320 L 944 320 L 944 424 L 792 424 L 792 320 Z Z" stroke-miterlimit="10"/></g><g transform="translate(-14,-38) scale(1,1)"><path fill="none" stroke="#000000" d="M 792 345 L 944 345" stroke-miterlimit="10"/></g><g transform="translate(-14,-38) scale(1,1)"><path fill="none" stroke="#000000" d="M 792 355 L 944 355" stroke-miterlimit="10"/></g><g transform="translate(-14,-38) scale(1,1)"><g><path fill="none" stroke="none"/><text fill="#000000" stroke="none" font-family="Arial" font-size="13px" font-style="normal" font-weight="bold" text-decoration="none" x="850.661376953125" y="337.471923828125">M1A1</text></g></g><g transform="translate(-14,-38) scale(1,1)"><g><path fill="none" stroke="none"/><text fill="#000000" stroke="none" font-family="Arial" font-size="13px" font-style="normal" font-weight="normal" text-decoration="none" x="797" y="370.7099609375">+reload()</text></g></g><g transform="translate(-14,-38) scale(1,1)"><g><path fill="none" stroke="none"/><text fill="#000000" stroke="none" font-family="Arial" font-size="13px" font-style="normal" font-weight="normal" text-decoration="none" x="797" y="385.7099609375">+aiming()</text></g></g><g transform="translate(-14,-38) scale(1,1)"><g><path fill="none" stroke="none"/><text fill="#000000" stroke="none" font-family="Arial" font-size="13px" font-style="normal" font-weight="normal" text-decoration="none" x="797" y="400.7099609375">+fire()</text></g></g><g transform="translate(-14,-38) scale(1,1)"><path fill="none" stroke="#000000" d="M 658 327 L 701.6129032258065 119" stroke-miterlimit="10"/></g><g transform="translate(-14,-38) scale(1,1)"><path fill="none" stroke="#000000" d="M 837 319 L 724.258064516129 119" stroke-miterlimit="10"/></g></g></svg>