<?xml version="1.0" standalone="no"?><!DOCTYPE svg PUBLIC "-//W3C//DTD SVG 1.1//EN" "http://www.w3.org/Graphics/SVG/1.1/DTD/svg11.dtd"><svg t="1668341723057" class="icon" viewBox="0 0 1024 1024" version="1.1" xmlns="http://www.w3.org/2000/svg" p-id="5473" xmlns:xlink="http://www.w3.org/1999/xlink" width="200" height="200"><path d="M420 462.4c-4.8 0-8.8-1.6-12-5.6-112-128-212-283.2-159.2-336.8 56.8-56 238.4 66.4 383.2 204.8 4 3.2 5.6 8.8 4.8 13.6-0.8 4.8-4 9.6-8 12L428 460.8c-2.4 0.8-4.8 1.6-8 1.6zM288.8 137.6c-8 0-13.6 1.6-17.6 5.6-20 20 15.2 124 152 283.2l170.4-93.6C448 197.6 334.4 137.6 288.8 137.6zM864 793.6c-70.4 0-192-84-295.2-175.2-5.6-4.8-7.2-12.8-3.2-20l109.6-201.6c2.4-4.8 7.2-7.2 12-8 4.8-0.8 10.4 0.8 13.6 4.8 137.6 145.6 259.2 328 203.2 384.8-9.6 10.4-23.2 15.2-40 15.2zM600 603.2c159.2 138.4 261.6 173.6 281.6 153.6 24-24-30.4-152-188.8-324L600 603.2z" p-id="5474"></path><path d="M579.2 622.4c-4 0-8-1.6-10.4-4-28-24.8-56-51.2-83.2-78.4-27.2-27.2-53.6-55.2-77.6-83.2-3.2-4-4.8-8.8-4-13.6 0.8-4.8 4-8.8 8-11.2l351.2-193.6c6.4-3.2 13.6-2.4 19.2 2.4 4.8 4.8 6.4 12.8 2.4 19.2L703.2 412.8 593.6 614.4c-2.4 4-6.4 7.2-11.2 8h-3.2zM445.6 451.2c20 22.4 41.6 44.8 63.2 67.2 21.6 21.6 44 43.2 66.4 63.2l156.8-287.2-286.4 156.8z" p-id="5475"></path><path d="M804.8 283.2c-16.8 0-32.8-6.4-44.8-18.4-24-24.8-24-64.8 0.8-89.6 12-12 28-18.4 44.8-18.4 16.8 0 32.8 6.4 44.8 18.4 24.8 24.8 24.8 64.8 0 88.8-12.8 12.8-28.8 19.2-45.6 19.2z m0-94.4c-8 0-16 3.2-21.6 8.8-12 12-12 32 0 44s32 12 43.2 0c12-12 12-32 0-44-5.6-5.6-13.6-8.8-21.6-8.8zM887.2 153.6c-4 0-8-1.6-11.2-4.8-6.4-6.4-6.4-16 0-22.4l58.4-58.4c6.4-6.4 16-6.4 22.4 0 6.4 6.4 6.4 16 0 22.4l-58.4 58.4c-3.2 3.2-7.2 4.8-11.2 4.8zM1004 249.6h-82.4c-8.8 0-16-7.2-16-16s7.2-16 16-16h82.4c8.8 0 16 7.2 16 16s-7.2 16-16 16zM792 119.2c-8.8 0-16-7.2-16-16V20c0-8.8 7.2-16 16-16s16 7.2 16 16v83.2c0 8.8-7.2 16-16 16zM713.6 847.2c-96 0-204-38.4-300-112-23.2-17.6-44.8-36.8-64.8-56.8s-39.2-42.4-56.8-64.8C163.2 443.2 144 238.4 246.4 123.2c0.8-0.8 1.6-2.4 2.4-3.2 6.4-6.4 16-6.4 22.4 0 6.4 6.4 6.4 16 0.8 22.4-0.8 0.8-0.8 1.6-1.6 1.6-24.8 32 52 186.4 238.4 373.6 159.2 160 299.2 243.2 355.2 243.2 7.2 0 12.8-1.6 16-4l1.6-1.6c6.4-5.6 16-5.6 22.4 0.8 6.4 6.4 5.6 16 0 22.4-0.8 0.8-2.4 1.6-3.2 3.2-48.8 44-114.4 65.6-187.2 65.6z m-475.2-656c-53.6 107.2-24.8 266.4 79.2 402.4 16.8 21.6 34.4 42.4 53.6 61.6 19.2 19.2 40 37.6 61.6 54.4 135.2 104 293.6 132.8 400 79.2C752 768 618.4 673.6 486.4 540.8 365.6 419.2 260.8 280 238.4 191.2zM545.6 1020H20c-6.4 0-12.8-4-15.2-10.4-2.4-6.4-0.8-12.8 4-17.6l216-202.4c5.6-5.6 15.2-5.6 21.6-0.8 22.4 19.2 56 21.6 80.8 4.8 6.4-4 14.4-3.2 20 1.6L556 992c4.8 4.8 6.4 11.2 4 17.6-2.4 6.4-8 10.4-14.4 10.4z m-484.8-32h444.8l-171.2-160.8c-31.2 15.2-68 12.8-96.8-4.8L60.8 988z" p-id="5476"></path><path d="M290.4 837.6c-23.2 0-46.4-8-64.8-24-2.4-1.6-4-3.2-5.6-5.6l-2.4-2.4-0.8-0.8c-36-40-35.2-100.8 3.2-138.4l74.4-74.4c3.2-3.2 8-4.8 12.8-4.8 4.8 0 8.8 2.4 12 6.4 16.8 21.6 34.4 42.4 53.6 61.6 19.2 19.2 40 37.6 61.6 54.4 4 2.4 5.6 7.2 6.4 12 0 4.8-1.6 8.8-4.8 12l-74.4 74.4-6.4 6.4c-2.4 2.4-5.6 4.8-8.8 6.4-18.4 11.2-36.8 16.8-56 16.8z m12.8-210.4l-61.6 61.6C216 715.2 215.2 756.8 240 784l1.6 2.4 4 4c22.4 19.2 56 21.6 80.8 4.8 2.4-1.6 4.8-3.2 6.4-4.8 1.6-1.6 3.2-2.4 4.8-4l61.6-61.6c-17.6-14.4-34.4-29.6-50.4-45.6-16-16.8-31.2-33.6-45.6-52zM535.2 493.6c-2.4 0-4-0.8-5.6-2.4-3.2-3.2-3.2-8 0-11.2l136-136c3.2-3.2 8-3.2 11.2 0 3.2 3.2 3.2 8 0 11.2l-136 136c-1.6 1.6-4 2.4-5.6 2.4zM407.2 956.8h-248c-4.8 0-8-3.2-8-8s3.2-8 8-8h228.8l-78.4-78.4c-3.2-3.2-3.2-8 0-11.2 3.2-3.2 8-3.2 11.2 0l92 92c2.4 2.4 3.2 5.6 1.6 8.8-1.6 3.2-4 4.8-7.2 4.8z" p-id="5477"></path></svg>